<svg xmlns="http://www.w3.org/2000/svg" viewBox="0 0 200 200"><rect width="200" height="200" rx="46" fill="#7B5CE5"/><path d="M46 104 Q46 42 100 42 Q154 42 154 104 L154 164 Q144 172 134 162 Q124 152 114 164 Q104 174 94 164 Q84 154 74 164 Q64 172 54 164 L46 158 Z" fill="#FFD23F"/><ellipse cx="78" cy="102" rx="11" ry="13" fill="#17161B"/><ellipse cx="122" cy="102" rx="11" ry="13" fill="#17161B"/><rect x="64" y="84" width="72" height="16" fill="#FFD23F"/><circle cx="80" cy="104" r="4" fill="#fff"/><circle cx="124" cy="104" r="4" fill="#fff"/><path d="M86 128 Q100 138 114 124" fill="none" stroke="#17161B" stroke-width="5" stroke-linecap="round"/><path d="M64 86 Q78 92 90 84 M110 84 Q122 92 136 86" fill="none" stroke="#17161B" stroke-width="5" stroke-linecap="round"/></svg>
